<svg xmlns="http://www.w3.org/2000/svg" width="21" height="21" viewBox="0 0 21 21">
    <g fill="none" fill-rule="evenodd" opacity=".5">
        <g fill="#37424B">
            <g>
                <g>
                    <g>
                        <path d="M14.803 14.078V6.22h-5.22v7.858h5.22zm0-9.078c.308 0 .58.123.816.369.235.246.353.53.353.85v7.859c0 .322-.118.605-.353.851-.236.246-.508.369-.816.369H4.363c-.308 0-.58-.123-.815-.369-.236-.246-.354-.53-.354-.851V6.22c0-.322.118-.605.354-.851.235-.246.507-.369.815-.369h10.44zm-4.649 6.355h4.078v.907h-4.078v-.907zm0-3.007h4.078v.907h-4.078v-.907zm0 1.503h4.078v.908h-4.078V9.85z" transform="translate(-13 -465) translate(0 452) translate(12 12) translate(1.917 2)"/>
                    </g>
                </g>
            </g>
        </g>
    </g>
</svg>
