<?xml version="1.0" encoding="UTF-8"?>
<svg width="24px" height="24px" viewBox="0 0 24 24" version="1.1" xmlns="http://www.w3.org/2000/svg" xmlns:xlink="http://www.w3.org/1999/xlink">
    <!-- Generator: sketchtool 61.2 (101010) - https://sketch.com -->
    <title>A514B791-2A4D-4BD3-9968-F09599D13971</title>
    <desc>Created with sketchtool.</desc>
    <g id="Symbols" stroke="none" stroke-width="1" fill="none" fill-rule="evenodd">
        <g id="Iconography" transform="translate(-462.000000, -458.000000)" fill="none">
            <rect x="0" y="0" width="1440" height="1072"></rect>
        </g>
        <g id="Icons/Resources/Audio/Green" fill="#D3D3D3">
            <path d="M4,9.15555556 L4,14.4888889 L7.55555556,14.4888889 L12,18.9333333 L12,4.71111111 L7.55555556,9.15555556 L4,9.15555556 L4,9.15555556 Z M16,11.8222222 C16,10.2222222 15.1111111,8.88888889 13.7777778,8.26666667 L13.7777778,15.3777778 C15.1111111,14.7555556 16,13.4222222 16,11.8222222 L16,11.8222222 Z M13.7777778,4 L13.7777778,5.86666667 C16.3555556,6.66666667 18.2222222,8.97777778 18.2222222,11.8222222 C18.2222222,14.6666667 16.3555556,16.9777778 13.7777778,17.7777778 L13.7777778,19.6444444 C17.3333333,18.8444444 20,15.6444444 20,11.8222222 C20,8 17.3333333,4.8 13.7777778,4 L13.7777778,4 Z" id="Shape"></path>
        </g>
    </g>
</svg>
