<?xml version="1.0" encoding="UTF-8"?>
<svg width="24px" height="24px" viewBox="0 0 24 24" version="1.1" xmlns="http://www.w3.org/2000/svg" xmlns:xlink="http://www.w3.org/1999/xlink">
    <!-- Generator: sketchtool 61.2 (101010) - https://sketch.com -->
    <title>E3FE2FAC-B19F-4906-8B80-843D50AA6F46</title>
    <desc>Created with sketchtool.</desc>
    <g id="Symbols" stroke="none" stroke-width="1" fill="none" fill-rule="evenodd">
        <g id="Iconography" transform="translate(-462.000000, -218.000000)" fill="none">
            <rect x="0" y="0" width="1440" height="1072"></rect>
        </g>
        <g id="Icons/Resources/Text/Green" fill="#D3D3D3">
            <g id="Group-2" transform="translate(4.000000, 4.000000)">
                <path d="M13.5632516,15.3901419 L2.12046452,15.3901419 C1.04196129,15.3901419 0.164748387,14.5127226 0.164748387,13.4342194 L0.164748387,1.99163871 C0.164748387,0.912929032 1.04196129,0.0355096774 2.12046452,0.0355096774 L13.5632516,0.0355096774 C14.6419613,0.0355096774 15.5193806,0.912929032 15.5193806,1.99163871 L15.5193806,13.4342194 C15.5193806,14.5127226 14.6419613,15.3901419 13.5632516,15.3901419 L13.5632516,15.3901419 Z M2.12046452,1.43256774 C1.81264516,1.43256774 1.56180645,1.68340645 1.56180645,1.99163871 L1.56180645,13.4342194 C1.56180645,13.7420387 1.81264516,13.9928774 2.12046452,13.9928774 L13.5632516,13.9928774 C13.8712774,13.9928774 14.1221161,13.7420387 14.1221161,13.4342194 L14.1221161,1.99163871 C14.1221161,1.68340645 13.8712774,1.43256774 13.5632516,1.43256774 L2.12046452,1.43256774 L2.12046452,1.43256774 Z" id="Fill-1"></path>
                <path d="M11.6724566,4.64516129 L3.81141439,4.64516129 C3.34937888,4.64516129 3.09677419,4.47187097 3.09677419,4.25806452 C3.09677419,4.04425806 3.34937888,3.87096774 3.81141439,3.87096774 L11.6724566,3.87096774 C12.1344921,3.87096774 12.3870968,4.04425806 12.3870968,4.25806452 C12.3870968,4.47187097 12.1344921,4.64516129 11.6724566,4.64516129" id="Fill-3"></path>
                <path d="M11.6724566,6.96774194 L3.81141439,6.96774194 C3.34937888,6.96774194 3.09677419,6.79445161 3.09677419,6.58064516 C3.09677419,6.36683871 3.34937888,6.19354839 3.81141439,6.19354839 L11.6724566,6.19354839 C12.1344921,6.19354839 12.3870968,6.36683871 12.3870968,6.58064516 C12.3870968,6.79445161 12.1344921,6.96774194 11.6724566,6.96774194" id="Fill-4"></path>
                <path d="M11.6724566,9.29032258 L3.81141439,9.29032258 C3.34937888,9.29032258 3.09677419,9.11716129 3.09677419,8.90322581 C3.09677419,8.68941935 3.34937888,8.51612903 3.81141439,8.51612903 L11.6724566,8.51612903 C12.1344921,8.51612903 12.3870968,8.68941935 12.3870968,8.90322581 C12.3870968,9.11716129 12.1344921,9.29032258 11.6724566,9.29032258" id="Fill-5"></path>
                <path d="M11.6724566,11.6129032 L3.81141439,11.6129032 C3.34937888,11.6129032 3.09677419,11.4396129 3.09677419,11.2258065 C3.09677419,11.011871 3.34937888,10.8387097 3.81141439,10.8387097 L11.6724566,10.8387097 C12.1344921,10.8387097 12.3870968,11.011871 12.3870968,11.2258065 C12.3870968,11.4396129 12.1344921,11.6129032 11.6724566,11.6129032" id="Fill-6"></path>
            </g>
        </g>
    </g>
</svg>
