<?xml version="1.0" encoding="UTF-8"?>
<svg width="24px" height="24px" viewBox="0 0 24 24" version="1.1" xmlns="http://www.w3.org/2000/svg" xmlns:xlink="http://www.w3.org/1999/xlink">
    <!-- Generator: sketchtool 61.2 (101010) - https://sketch.com -->
    <title>305252A9-414E-469D-B68A-8E0B2FAE8C03</title>
    <desc>Created with sketchtool.</desc>
    <g id="Symbols" stroke="none" stroke-width="1" fill="none" fill-rule="evenodd">
        <g id="Iconography" transform="translate(-462.000000, -378.000000)" fill="none">
            <rect x="0" y="0" width="1440" height="1072"></rect>
        </g>
        <g id="Icons/Resources/Interactive/Green" fill="#4B9740">
            <path d="M20.4649362,12.0355781 C20.4762151,11.5068059 20.2114467,10.9889304 19.6970122,10.5287877 C19.7098205,10.4593936 19.7163202,10.3911464 19.7163202,10.3228992 C19.7163202,9.65342702 19.1714899,9.10897904 18.5018265,9.10897904 C18.2003537,9.10897904 17.9157038,9.22043029 17.6943306,9.42039258 C17.3548153,9.29536836 16.9770663,9.17779971 16.5675833,9.06940715 C17.250055,6.5643347 17.0309758,4.79908447 15.9548882,4.2047415 C15.7155452,4.07245287 15.4448505,4.00535272 15.1500686,4.00535272 C14.2028286,4.00535272 12.9978933,4.72338173 11.7371368,6.03422436 C10.4767627,4.71994069 9.27201859,4 8.32458734,4 C8.03133482,4 7.76140485,4.06671782 7.52225301,4.19824177 C7.10722613,4.42668817 6.60942327,4.95641617 6.52855898,6.18333581 C6.09135654,6.37201916 5.79236896,6.8103686 5.79236896,7.2982307 C5.79236896,7.88244173 6.21045454,8.37393603 6.76369627,8.48729897 C6.79466558,8.62742551 6.82716423,8.76391984 6.86138339,8.89831132 C4.42799914,9.46474368 3.02596912,10.4651286 3.00035254,11.66452 C2.97894166,12.6681548 3.93344615,13.5863372 5.68779977,14.2495009 C6.04796129,14.3861864 6.45534143,14.5144605 6.90171995,14.6324115 C6.85411899,14.8061837 6.81129724,14.9761325 6.77268119,15.1409198 C6.21466025,15.2504593 5.79236896,15.743483 5.79236896,16.3330467 C5.79236896,16.8224382 6.08065111,17.2516115 6.51594186,17.4422066 C6.58093916,18.715389 7.08600642,19.2617486 7.51020939,19.4963124 C7.74974357,19.6282187 8.02062938,19.6953189 8.31522009,19.6953189 C9.26246017,19.6953189 10.4673954,18.9772899 11.7281519,17.6666384 C12.9883349,18.9805397 14.193079,19.7004804 15.1408926,19.7004804 C15.4341451,19.7004804 15.704075,19.6337626 15.9432269,19.502621 C16.9923598,18.925292 17.2292176,17.2200687 16.6052435,14.8017868 C19.0376719,14.2351632 20.4393196,13.2347783 20.4649362,12.0355781 L20.4649362,12.0355781 Z M15.4693201,18.6408333 C15.377368,18.6916841 15.2668726,18.7171095 15.1408926,18.7171095 C14.467597,18.7171095 13.4737118,18.0671365 12.3932272,16.9250957 C12.8260328,16.4108523 13.2542503,15.8379202 13.6694684,15.2175783 C14.3561457,15.1732272 15.0173977,15.0982892 15.6406071,14.9939112 C16.1978634,17.1254403 15.9518295,18.3753002 15.4693201,18.6408333 L15.4693201,18.6408333 Z M8.31522009,18.7117568 C8.18847535,18.7117568 8.0775976,18.685949 7.9852632,18.6350982 C7.70673065,18.4813987 7.53678182,18.0614014 7.49893045,17.4420154 C7.92867731,17.2502733 8.22135634,16.8163208 8.22135634,16.3330467 C8.22135634,15.9426806 8.03821688,15.5871071 7.73120022,15.3609547 C7.76905159,15.1986527 7.81187334,15.030042 7.85966547,14.856461 C8.45439078,14.9765148 9.0854381,15.0713344 9.74076384,15.1393904 C10.1707019,15.7895546 10.6147864,16.3884856 11.0646059,16.9239487 C9.98316553,18.0631219 8.98908916,18.7117568 8.31522009,18.7117568 L8.31522009,18.7117568 Z M7.99654214,5.05983835 C8.08830304,5.00917868 8.19860728,4.9835621 8.32458734,4.9835621 C8.99826525,4.9835621 9.99195929,5.63353511 11.0724438,6.7757671 C10.640403,7.28886344 10.2123766,7.8619867 9.79639388,8.4834756 C9.11086352,8.52763553 8.45037624,8.60238243 7.82735799,8.70637811 C7.7908448,8.56567807 7.75643446,8.42249284 7.72355348,8.27491073 C8.03171715,8.04875836 8.22135634,7.68572931 8.22135634,7.2982307 C8.22135634,6.81304496 7.93919158,6.38807731 7.51173874,6.19461476 C7.55761919,5.60753619 7.72699451,5.20799396 7.99654214,5.05983835 L7.99654214,5.05983835 Z M15.1500686,4.98872365 C15.2762399,4.98872365 15.3873088,5.01472257 15.4796432,5.0655734 C15.9772549,5.34028258 16.2169802,6.63525822 15.6107848,8.84535763 C15.013192,8.72473029 14.3804241,8.62933719 13.7247161,8.56128119 C13.294778,7.91149935 12.8506935,7.31256834 12.4010651,6.77672294 C13.4823144,5.63735848 14.4765819,4.98872365 15.1500686,4.98872365 L15.1500686,4.98872365 Z M8.74764331,10.2018895 C8.66352915,10.3542509 8.57960617,10.5115826 8.49262448,10.6792374 C8.35288029,10.3334135 8.22651789,9.99256 8.11487546,9.65954441 C8.44464118,9.6067819 8.78606818,9.56262197 9.1359066,9.52687345 C9.00075044,9.75321699 8.87209402,9.97669301 8.74764331,10.2018895 L8.74764331,10.2018895 Z M8.15157982,13.9124708 C8.25270798,13.6217034 8.36587975,13.3223335 8.49052163,13.0164638 C8.57673864,13.1837363 8.66047046,13.341068 8.74477578,13.4945764 C8.84762445,13.6811568 8.9554435,13.8704137 9.07071813,14.0655968 C8.75184902,14.020481 8.44483235,13.9692478 8.15157982,13.9124708 L8.15157982,13.9124708 Z M9.00629433,11.8484241 C9.20033039,11.4431468 9.4025867,11.049722 9.60847521,10.6773257 C9.83386291,10.2687985 10.082382,9.85300697 10.3482974,9.43931826 C10.829851,9.41867206 11.3028019,9.41312818 11.7843555,9.42402478 C12.237616,9.43377438 12.6985234,9.45767044 13.1556073,9.49513948 C13.4090968,9.8941082 13.6455723,10.2921211 13.8589164,10.680002 C14.0707311,11.0653978 14.2729874,11.459205 14.4609061,11.8524387 C14.2731786,12.2443341 14.0703488,12.637759 13.8571959,13.0237283 C13.632764,13.4301526 13.3842449,13.8461353 13.1169913,14.2619268 C12.641364,14.2823819 12.1653543,14.2875434 11.6811244,14.2766468 C11.2282462,14.2670884 10.76753,14.2431923 10.3092991,14.2057233 C10.0560007,13.8067546 9.81971644,13.4087417 9.60637236,13.0206696 C9.40048385,12.6459792 9.19880104,12.2523632 9.00629433,11.8484241 L9.00629433,11.8484241 Z M14.3295733,14.1741805 C14.4647294,13.9480281 14.5933859,13.7243609 14.7176454,13.4991644 C14.8044359,13.342215 14.8906529,13.1814423 14.9764876,13.0176109 C15.1169965,13.3645817 15.2439324,13.7065823 15.3559571,14.040936 C15.0233239,14.0940809 14.6803676,14.138432 14.3295733,14.1741805 L14.3295733,14.1741805 Z M15.3169588,9.78877434 C15.2150659,10.0837474 15.1018942,10.3842643 14.978017,10.6880311 C14.8933293,10.5249644 14.8073035,10.3640005 14.7205129,10.2060952 C14.6172819,10.0185589 14.5090805,9.82930207 14.3947618,9.63507484 C14.7140132,9.68038178 15.0221769,9.73161495 15.3169588,9.78877434 L15.3169588,9.78877434 Z M11.805384,8.44084502 C11.6333323,8.43721282 11.46281,8.4354923 11.2932435,8.4354923 C11.2058795,8.4354923 11.1185155,8.4360658 11.0313426,8.43702165 C11.2605537,8.12254941 11.4962645,7.81954729 11.736181,7.5308828 C11.9822149,7.8279587 12.2238519,8.14032808 12.4593715,8.46550576 C12.2297781,8.45346214 12.012993,8.44543306 11.805384,8.44084502 L11.805384,8.44084502 Z M7.14125413,9.84593373 C7.35574522,10.504127 7.61745494,11.1758932 7.9208394,11.8476594 C7.63924815,12.4681925 7.39359659,13.0866227 7.18866392,13.6912888 C6.76159342,13.5794552 6.37447714,13.4582543 6.03553533,13.3297891 C4.75852953,12.8467062 3.97225336,12.2166147 3.98372347,11.6851662 C3.99825228,10.9916068 5.22842179,10.2798863 7.14125413,9.84593373 L7.14125413,9.84593373 Z M11.6604782,15.2598266 C11.9200851,15.2653705 12.177398,15.2665175 12.4343285,15.2638411 C12.2049262,15.5785045 11.9692154,15.8813155 11.7294901,16.16998 C11.4830738,15.8723306 11.2412456,15.5601523 11.0061084,15.2351658 C11.2351283,15.2474006 11.4501929,15.2554297 11.6604782,15.2598266 L11.6604782,15.2598266 Z M16.3280491,13.8551202 C16.1156609,13.2041913 15.8531865,12.5324251 15.5459787,11.8530122 C15.8300551,11.2276999 16.0762802,10.6094609 16.2793012,10.0101475 C16.6442419,10.1055406 16.9816544,10.2089628 17.287524,10.3185023 L17.287524,10.3228992 C17.287524,10.9927538 17.8321632,11.5377752 18.5018265,11.5377752 C18.7310376,11.5377752 18.9510726,11.4743073 19.1412853,11.3555916 C19.3240424,11.5393046 19.4867268,11.7721479 19.4815653,12.0149319 C19.4670364,12.7094472 18.2383963,13.42155 16.3280491,13.8551202 L16.3280491,13.8551202 Z" id="Fill-1"></path>
        </g>
    </g>
</svg>
