<?xml version="1.0" encoding="UTF-8"?>
<svg width="24px" height="24px" viewBox="0 0 24 24" version="1.1" xmlns="http://www.w3.org/2000/svg" xmlns:xlink="http://www.w3.org/1999/xlink">
    <!-- Generator: sketchtool 61.2 (101010) - https://sketch.com -->
    <title>C5395464-AAF0-43BD-BB2D-4575C0A3A632</title>
    <desc>Created with sketchtool.</desc>
    <g id="Symbols" stroke="none" stroke-width="1" fill="none" fill-rule="evenodd">
        <g id="Iconography" transform="translate(-462.000000, -298.000000)" fill="none">
            <rect x="0" y="0" width="1440" height="1072"></rect>
        </g>
        <g id="Icons/Resources/Video/Green" fill="#4B9740">
            <g id="Group-2-Copy" transform="translate(4.000000, 4.000000)">
                <path d="M3.06665531,12.8 L1.52380953,12.8 L1.52380953,13.6 L3.23802277,13.6 C3.41176509,13.8428804 3.68838679,14 4,14 C4.31161321,14 4.58823491,13.8428804 4.76197723,13.6 L14.3238095,13.6 L14.3238095,12.8 L4.93334469,12.8 C4.84513745,12.3434143 4.46083242,12 4,12 C3.53916758,12 3.15486255,12.3434143 3.06665531,12.8 Z M16,15.2 C16,15.5343309 15.580469,16 15.2380953,16 L0.761904763,16 C0.419972414,16 0,15.5343309 0,15.2 L0,0.8 C0,0.46467349 0.419972414,0 0.761904763,0 L15.2380953,0 C15.580469,0 16,0.46467349 16,0.8 L16,15.2 Z M1.6,1.6 L14.552381,1.6 L14.552381,11.2 L1.6,11.2 L1.6,1.6 Z" id="Fill-1"></path>
                <path d="M6.4,4.8077574 C6.4,4.85867282 6.6711664,4.68848309 7.3,4.8077574 L10,7 C10.0829782,6.82924294 10.0829782,7.1705301 10,7 L7.3,9.1922426 C6.6711664,9.3115169 6.4,9.14132716 6.4,9.1922426 L6.4,4.8077574" id="Fill-15"></path>
            </g>
        </g>
    </g>
</svg>
