<?xml version="1.0" encoding="UTF-8"?>
<svg width="24px" height="24px" viewBox="0 0 24 24" version="1.1" xmlns="http://www.w3.org/2000/svg" xmlns:xlink="http://www.w3.org/1999/xlink">
    <!-- Generator: sketchtool 61.2 (101010) - https://sketch.com -->
    <title>B5910DF4-9DA0-4BF3-8CCF-A428AF486DEB</title>
    <desc>Created with sketchtool.</desc>
    <g id="Symbols" stroke="none" stroke-width="1" fill="none" fill-rule="evenodd">
        <g id="Iconography" transform="translate(-462.000000, -258.000000)" fill="none">
            <rect x="0" y="0" width="1440" height="1072"></rect>
        </g>
        <g id="Icons/Resources/Webpage/Green" fill="#4B9740">
            <g id="Group-2" transform="translate(4.000000, 3.000000)">
                <path d="M8,17 C3.5886688,17 0,13.4111382 0,8.99987562 C0,4.58886177 3.5886688,1 8,1 C12.4110824,1 16,4.58886177 16,8.99987562 C16,13.4111382 12.4110824,17 8,17 L8,17 Z M8,2.11942039 C4.20610094,2.11942039 1.11943779,5.2062843 1.11943779,8.99987562 C1.11943779,12.7937157 4.20610094,15.8805796 8,15.8805796 C11.7938991,15.8805796 14.8805622,12.7937157 14.8805622,8.99987562 C14.8805622,5.2062843 11.7938991,2.11942039 8,2.11942039 L8,2.11942039 Z" id="Fill-1"></path>
                <polygon id="Fill-2" points="7.46666667 1.50526316 8.57435897 1.50526316 8.57435897 16 7.46666667 16"></polygon>
                <path d="M6,2 L7.24737169,1.37805111 L6.88454092,0.941657132 L7.247864,1.3775377 C6.97684861,1.62397195 1.37673846,8.25279641 8,16.5052632 L6.45967938,16.5052632 C-0.873489851,7.36794345 5.92541538,2.06725601 6,2 Z" id="Fill-3"></path>
                <path d="M8,16.5052632 L8.53333333,16 C8.80459487,15.7535658 15.1563487,9.49908626 8.53333333,1.24687621 L10,1.3775377 C17.3331692,10.5148574 9.39561026,16.4380071 9.32077949,16.5052632 L8,16.5052632 Z" id="Fill-4"></path>
                <polygon id="Fill-5" points="1.6 5.04210526 14.2486154 5.04210526 14.2486154 6.1003164 1.6 6.1003164"></polygon>
                <polygon id="Fill-6" points="1.22430769 11.1052632 14.6243077 11.1052632 14.6243077 12.1634743 1.22430769 12.1634743"></polygon>
                <polygon id="Fill-7" points="0.533333333 8.07368421 15.2506256 8.07368421 15.2506256 9.13189535 0.533333333 9.13189535"></polygon>
            </g>
        </g>
    </g>
</svg>
