<svg xmlns="http://www.w3.org/2000/svg" width="44" height="44" viewBox="0 0 44 44">
    <g fill="none" fill-rule="evenodd">
        <path fill="#F3F3F3" d="M0 22C0 9.87 9.869 0 22 0c12.13 0 22 9.87 22 22s-9.87 22-22 22C9.869 44 0 34.13 0 22"/>
        <path fill="#1E69A3" d="M22 2.91c10.515 0 19.07 8.564 19.07 19.09 0 10.525-8.555 19.09-19.07 19.09-10.516 0-19.07-8.565-19.07-19.09C2.93 11.474 11.483 2.91 22 2.91zM.957 22c0 11.614 9.44 21.064 21.043 21.064 11.604 0 21.043-9.45 21.043-21.064C43.043 10.385 33.603.936 22 .936S.957 10.386.957 22z"/>
        <path fill="#E08546" d="M21.916 16.314L27.279 16.314 27.279 13.72 21.916 13.72zM21.916 19.33L27.279 19.33 27.279 16.736 21.916 16.736zM21.916 22.461L27.279 22.461 27.279 19.867 21.916 19.867zM21.916 25.592L27.279 25.592 27.279 22.998 21.916 22.998zM21.916 28.723L27.279 28.723 27.279 26.129 21.916 26.129zM16.009 22.461L21.372 22.461 21.372 19.867 16.009 19.867zM10.095 19.33L15.458 19.33 15.458 16.736 10.095 16.736z"/>
        <path fill="#E08546" d="M27.789 19.867h4.078l2.123-7.928c.406-1.518-.502-2.428-2.02-2.021L7.556 16.465c-1.517.407-1.63 1.355-.25 2.107l2.79 1.521v-.226h5.363v2.594h-1.02l.983.537h.037v.02l.55.3v-.32h5.364v2.594h-2.42c.165.177.323.356.474.537h1.946v2.594h-.33l.291.537h.04v.072l.543.998v-1.07h5.363v2.595h-4.533l.292.536h4.241v2.594h-2.828l.292.537h2.536v1.335c.063-.142.12-.303.169-.484l.371-1.388h-.03v-2.594h.724l.144-.536h-.868V29.26h1.563l.143-.537H27.79V26.13h2.401l.144-.537H27.79v-2.594h3.24l.143-.537H27.79v-2.594z"/>
        <path fill="#1E69A3" d="M21.492 22.995H16.18v.316l.46.25c.784.424 1.687 1.173 2.455 1.99h2.398v-2.556z"/>
        <path fill="#C1DCE6" d="M16.179 22.405L21.492 22.405 21.492 19.849 16.179 19.849z"/>
        <path fill="#1E69A3" d="M21.394 25.944h-1.87c.358.442.666.887.885 1.3l.667 1.256h.318v-2.556zM21.378 29.061L21.41 29.12 21.41 29.061z"/>
        <path fill="#C1DCE6" d="M21.984 25.551L27.298 25.551 27.298 22.995 21.984 22.995zM27.986 25.551L30.46 25.551 31.135 22.995 27.986 22.995zM21.984 22.405L27.298 22.405 27.298 19.849 21.984 19.849z"/>
        <path fill="#E4E4E3" d="M21.984 19.259L27.298 19.259 27.298 16.703 21.984 16.703zM27.888 19.849L27.888 22.405 31.235 22.405 31.922 19.849zM21.984 16.31L27.298 16.31 27.298 13.753 21.984 13.753z"/>
        <path fill="#1E69A3" d="M21.984 28.5L27.298 28.5 27.298 25.944 21.984 25.944zM27.298 29.09L21.984 29.09 21.984 30.145 22.807 31.646 27.298 31.646zM27.298 32.335L23.067 32.335 24.476 34.891 27.298 34.891zM24.74 35.48l.604 1.153c.667 1.272 1.486 1.332 1.954.244v-1.396h-2.559zM27.986 28.5L29.595 28.5 30.249 25.944 27.986 25.944zM27.986 31.646L28.807 31.646 29.462 29.09 27.986 29.09zM27.986 34.891L28.015 34.891 28.675 32.335 27.986 32.335z"/>
        <path fill="#C1DCE6" d="M15.377 22.888L15.407 22.905 15.407 22.888z"/>
        <path fill="#E4E4E3" d="M10.177 19.259L15.49 19.259 15.49 16.703 10.177 16.703z"/>
        <path fill="#C1DCE6" d="M15.49 19.849L10.177 19.849 10.177 20.072 14.479 22.405 15.49 22.405z"/>
    </g>
</svg>
